<?xml version="1.0" encoding="iso-8859-1"?>
<!-- Generator: Adobe Illustrator 18.1.1, SVG Export Plug-In . SVG Version: 6.00 Build 0)  -->
<svg version="1.1" id="Capa_1" xmlns="http://www.w3.org/2000/svg" xmlns:xlink="http://www.w3.org/1999/xlink" x="0px" y="0px"
	 viewBox="0 0 48.07 48.07" style="enable-background:new 0 0 48.07 48.07;" xml:space="preserve">
<g fill="#FFFFFF">
	<path style="fill:#FFFFFF;" d="M23.095,2.367c-12.62,0-22.851,10.231-22.851,22.852c0,12.62,10.231,22.851,22.851,22.851
		c12.621,0,22.852-10.231,22.852-22.851H23.095V2.367z"/>
	<path style="fill:#FFFFFF;" d="M41.051,5.224c-0.02-0.019-0.042-0.034-0.062-0.053c-0.02-0.018-0.035-0.038-0.056-0.054
		c-0.022-0.018-0.046-0.033-0.069-0.05c-0.007-0.005-0.014-0.011-0.022-0.016C36.619,1.702,31.693,0,26.197,0
		c-0.693,0-1.254,0.561-1.254,1.254v20.725c0,0.522,0.323,0.989,0.812,1.173c0.144,0.055,0.293,0.081,0.441,0.081
		c0.031,0,0.061-0.007,0.091-0.01c0.022,0.001,0.043,0.01,0.066,0.01h20.218c0.692,0,1.254-0.561,1.254-1.254
		C47.826,15.691,45.42,9.741,41.051,5.224z M27.451,18.651V2.541c4.004,0.215,7.649,1.471,10.864,3.743L27.451,18.651z"/>
</g>
</svg>
